<?xml version="1.0" encoding="UTF-8"?>
<svg id="Layer_1" xmlns="http://www.w3.org/2000/svg" version="1.1" viewBox="0 0 1800 600">
  <!-- Generator: Adobe Illustrator 29.8.3, SVG Export Plug-In . SVG Version: 2.1.1 Build 3)  -->
  <defs>
    <style>
      .st0 {
        fill: #001011;
      }

      .st1 {
        fill: #4baeee;
      }
    </style>
  </defs>
  <path class="st0" d="M2.86,31.03l328.87,558.62c8.12,13.79,28.42,13.79,36.54,0L697.14,31.03c8.12-13.79-2.03-31.03-18.27-31.03H21.13C4.89,0-5.26,17.24,2.86,31.03ZM166.16,172.69h143.88l39.95,67.87,101.67-172.69h143.89l-245.55,417.1L166.16,172.69Z"/>
  <g>
    <rect class="st1" x="1175.49" y="98.84" width="72" height="261.16"/>
    <path class="st1" d="M1487.66,287.34h-45.31c-29.78,0-54-24.22-54-54v-62.39h99v-72h-99V0h-72v233.34c0,69.48,56.52,126,126,126h89.59c-19.88-20.04-35.21-44.61-44.28-72Z"/>
    <path class="st1" d="M1728,98.84v13.93c-17.63-8.89-37.52-13.93-58.58-13.93-72,0-130.58,58.58-130.58,130.58s58.58,130.58,130.58,130.58h130.58V98.84h-72ZM1728,288h-58.58c-32.3,0-58.58-26.28-58.58-58.58s26.28-58.58,58.58-58.58,58.58,26.28,58.58,58.58v58.58Z"/>
    <polygon class="st1" points="1080.56 0 955.88 215.94 883.14 89.94 800 89.94 955.88 359.94 1163.7 0 1080.56 0"/>
  </g>
  <g>
    <path class="st1" d="M861.43,563.89l-13.28,36.11h-8.09l-9.31-24.89-9.44,24.89h-8.09l-13.22-36.11h7.96l9.51,26.65,9.91-26.65h7.08l9.71,26.78,9.78-26.78h7.48Z"/>
    <path class="st1" d="M950.71,563.89l-13.28,36.11h-8.09l-9.31-24.89-9.44,24.89h-8.09l-13.22-36.11h7.96l9.51,26.65,9.91-26.65h7.08l9.71,26.78,9.78-26.78h7.49Z"/>
    <path class="st1" d="M1039.98,563.89l-13.28,36.11h-8.09l-9.31-24.89-9.44,24.89h-8.09l-13.22-36.11h7.96l9.51,26.65,9.91-26.65h7.08l9.71,26.78,9.78-26.78h7.49Z"/>
    <path class="st1" d="M1070.33,598.41c-1.08-1.06-1.62-2.4-1.62-4.02s.53-3.02,1.58-4.06c1.06-1.04,2.37-1.56,3.94-1.56s2.89.52,3.95,1.56c1.06,1.04,1.58,2.39,1.58,4.06s-.54,2.97-1.62,4.02c-1.08,1.06-2.38,1.59-3.91,1.59s-2.83-.53-3.91-1.59Z"/>
    <path class="st1" d="M1147.47,563.89l-15.44,36.11h-8.7l-15.44-36.11h8.77l11.19,26.78,11.53-26.78h8.09Z"/>
    <path class="st1" d="M1179.59,556.66c-1.03-.97-1.54-2.17-1.54-3.6s.51-2.64,1.54-3.6c1.03-.97,2.3-1.45,3.83-1.45s2.8.46,3.83,1.38c1.03.92,1.54,2.08,1.54,3.47,0,1.48-.5,2.73-1.51,3.74-1.01,1.01-2.3,1.52-3.86,1.52s-2.8-.48-3.83-1.45ZM1179.19,564.03h8.4v35.97h-8.4v-35.97Z"/>
    <path class="st1" d="M1248.02,597.57c-.99.81-2.18,1.42-3.59,1.82s-2.9.61-4.47.61c-3.94,0-6.99-1.03-9.14-3.1-2.15-2.06-3.22-5.07-3.22-9.03v-17.31h-5.91v-6.74h5.91v-8.22h8.4v8.22h9.6v6.74h-9.6v17.11c0,1.75.43,3.09,1.28,4.01.85.92,2.08,1.38,3.69,1.38,1.88,0,3.45-.49,4.7-1.48l2.35,5.99Z"/>
    <path class="st1" d="M1308.64,566.96c2.8,2.54,4.2,6.36,4.2,11.48v21.08h-7.92v-4.38c-1.03,1.57-2.5,2.77-4.4,3.6-1.9.83-4.2,1.25-6.88,1.25s-5.04-.46-7.05-1.38-3.57-2.2-4.67-3.84c-1.1-1.64-1.65-3.49-1.65-5.56,0-3.23,1.2-5.83,3.59-7.78,2.39-1.95,6.17-2.93,11.32-2.93h9.27v-.54c0-2.51-.75-4.44-2.25-5.79-1.5-1.35-3.73-2.02-6.68-2.02-2.02,0-4,.31-5.94.94-1.95.63-3.59,1.51-4.94,2.63l-3.29-6.13c1.88-1.44,4.14-2.54,6.78-3.3,2.64-.76,5.44-1.14,8.4-1.14,5.28,0,9.32,1.27,12.12,3.81ZM1300.98,592.42c1.63-.97,2.79-2.35,3.46-4.14v-4.18h-8.66c-4.83,0-7.25,1.59-7.25,4.78,0,1.53.61,2.74,1.81,3.64,1.21.9,2.89,1.35,5.04,1.35s3.97-.48,5.61-1.45Z"/>
    <path class="st1" d="M1385.37,584.24h-28.14c.49,2.65,1.78,4.75,3.86,6.3,2.08,1.55,4.67,2.32,7.76,2.32,3.94,0,7.19-1.3,9.74-3.91l4.5,5.19c-1.61,1.93-3.65,3.39-6.11,4.38s-5.24,1.48-8.33,1.48c-3.94,0-7.41-.79-10.41-2.36-3-1.57-5.32-3.76-6.95-6.57-1.63-2.81-2.45-5.98-2.45-9.53s.79-6.66,2.38-9.46c1.59-2.81,3.79-4.99,6.61-6.57,2.82-1.57,6-2.36,9.54-2.36s6.61.77,9.37,2.32c2.75,1.55,4.9,3.73,6.45,6.53,1.54,2.81,2.32,6.05,2.32,9.73,0,.58-.05,1.42-.13,2.49ZM1360.55,572.28c-1.86,1.59-2.99,3.72-3.39,6.37h20.35c-.36-2.6-1.46-4.71-3.29-6.33-1.84-1.62-4.12-2.42-6.85-2.42s-4.96.8-6.82,2.39Z"/>
    <path class="st1" d="M1452.56,567.83c2.71,2.63,4.07,6.53,4.07,11.7v20.46h-8.34v-19.39c0-3.12-.73-5.47-2.2-7.06s-3.56-2.37-6.27-2.37c-3.07,0-5.49.93-7.27,2.78-1.78,1.85-2.67,4.51-2.67,7.99v18.06h-8.34v-35.71h7.94v4.61c1.38-1.65,3.11-2.9,5.2-3.75,2.09-.85,4.44-1.27,7.07-1.27,4.49,0,8.09,1.32,10.8,3.95Z"/>
    <path class="st1" d="M1528.3,563.89l-15.44,36.11h-8.7l-15.44-36.11h8.77l11.19,26.78,11.53-26.78h8.09Z"/>
    <path class="st1" d="M1557.9,598.42c-1.08-1.05-1.61-2.39-1.61-4.01s.52-3.01,1.58-4.04c1.05-1.03,2.36-1.55,3.93-1.55s2.88.52,3.93,1.55c1.05,1.03,1.58,2.38,1.58,4.04s-.54,2.95-1.61,4.01c-1.07,1.06-2.37,1.58-3.9,1.58s-2.82-.53-3.89-1.58Z"/>
    <path class="st1" d="M1609.14,597.64c-2.96-1.57-5.26-3.76-6.92-6.57-1.66-2.81-2.48-5.98-2.48-9.53s.83-6.71,2.48-9.5c1.66-2.78,3.95-4.96,6.88-6.53,2.93-1.57,6.28-2.36,10.04-2.36,3.54,0,6.64.72,9.3,2.16,2.66,1.44,4.67,3.5,6.01,6.2l-6.45,3.77c-1.03-1.66-2.32-2.91-3.86-3.74-1.55-.83-3.24-1.25-5.07-1.25-3.14,0-5.73,1.02-7.79,3.06-2.06,2.04-3.09,4.77-3.09,8.18s1.02,6.14,3.05,8.18c2.04,2.04,4.65,3.06,7.83,3.06,1.83,0,3.52-.41,5.07-1.25,1.54-.83,2.83-2.08,3.86-3.74l6.45,3.77c-1.39,2.69-3.41,4.77-6.08,6.23-2.66,1.46-5.74,2.19-9.23,2.19-3.72,0-7.05-.79-10.01-2.36Z"/>
    <path class="st1" d="M1675.36,597.64c-2.91-1.57-5.18-3.76-6.82-6.57-1.63-2.81-2.45-5.98-2.45-9.53s.82-6.71,2.45-9.5c1.63-2.78,3.91-4.96,6.82-6.53,2.91-1.57,6.18-2.36,9.8-2.36s6.96.79,9.87,2.36c2.91,1.57,5.18,3.75,6.82,6.53,1.63,2.78,2.45,5.95,2.45,9.5s-.82,6.73-2.45,9.53c-1.64,2.81-3.91,5-6.82,6.57-2.91,1.57-6.2,2.36-9.87,2.36s-6.89-.79-9.8-2.36ZM1692.82,589.69c2.01-2.07,3.02-4.78,3.02-8.15s-1.01-6.08-3.02-8.15c-2.01-2.06-4.57-3.1-7.66-3.1s-5.63,1.03-7.62,3.1c-1.99,2.07-2.99,4.78-2.99,8.15s1,6.09,2.99,8.15c1.99,2.07,4.53,3.1,7.62,3.1s5.64-1.03,7.66-3.1Z"/>
    <path class="st1" d="M1796.06,567.8c2.62,2.61,3.94,6.52,3.94,11.74v20.46h-8.34v-19.39c0-3.12-.69-5.47-2.07-7.06-1.38-1.58-3.36-2.37-5.94-2.37-2.8,0-5.05.93-6.74,2.78-1.69,1.85-2.53,4.49-2.53,7.92v18.12h-8.34v-19.39c0-3.12-.69-5.47-2.07-7.06-1.38-1.58-3.36-2.37-5.93-2.37-2.85,0-5.1.91-6.77,2.74-1.67,1.83-2.5,4.48-2.5,7.96v18.12h-8.34v-35.71h7.94v4.55c1.33-1.6,3-2.83,5-3.68,2-.85,4.22-1.27,6.67-1.27,2.67,0,5.03.5,7.1,1.5,2.07,1,3.7,2.49,4.9,4.45,1.47-1.87,3.36-3.33,5.67-4.38,2.31-1.05,4.87-1.57,7.67-1.57,4.49,0,8.04,1.3,10.67,3.91Z"/>
  </g>
  <g>
    <path d="M836.63,454.48c-13.86,0-24.75,10.69-24.75,24.35s10.89,24.45,24.75,24.45c6.93,0,14.06-3.17,19.3-8.22l6.93,7.72c-7.03,6.93-17.03,11.38-26.83,11.38-20.29,0-36.04-15.34-36.04-35.24s15.94-34.85,36.43-34.85c9.8,0,19.6,4.06,26.33,10.69l-6.83,8.51c-5.05-5.45-12.28-8.81-19.3-8.81Z"/>
    <path d="M952.46,479.03c0,19.8-16.04,35.14-36.73,35.14s-36.73-15.34-36.73-35.14,16.04-34.95,36.73-34.95,36.73,15.15,36.73,34.95ZM890.88,479.03c0,13.76,11.38,24.65,24.95,24.65s24.65-10.89,24.65-24.65-11.09-24.45-24.65-24.45-24.95,10.69-24.95,24.45Z"/>
    <path d="M987.9,444.38l37.12,49.8v-49.8h11.48v69.3h-11.48l-36.93-49.7v49.7h-11.68v-69.3h11.48Z"/>
    <path d="M1088.19,454.88c-6.83,0-11.29,2.57-11.29,7.23,0,15.15,37.42,7.03,37.32,31.98,0,12.38-10.89,20-26.14,20-10.89,0-21.19-4.46-28.31-10.99l5.05-10.1c7.13,6.53,16.04,10.1,23.46,10.1,8.12,0,12.97-3.07,12.97-8.42,0-15.44-37.42-6.83-37.42-31.48,0-11.88,10.2-19.31,25.25-19.31,9.01,0,17.82,2.87,24.25,7.13l-4.85,10.3c-7.52-4.55-15.05-6.44-20.29-6.44Z"/>
    <path d="M1186.69,444.38v10.49h-21.98v58.81h-11.68v-58.81h-21.88v-10.49h55.54Z"/>
    <path d="M1252.13,513.68l-12.67-20.99c-.99.1-2.08.1-3.17.1h-16.43v20.89h-11.68v-69.3h28.12c17.72,0,27.92,8.61,27.92,23.66,0,11.09-5.15,18.91-14.36,22.47l15.54,23.17h-13.27ZM1236.29,482.3c10.69,0,16.83-4.55,16.83-13.96s-6.14-13.46-16.83-13.46h-16.43v27.42h16.43Z"/>
    <path d="M1320.14,503.68c11.29,0,18.31-6.93,18.31-18.71v-40.59h11.68v40.59c0,18.12-11.39,29.21-30.1,29.21s-30.2-11.09-30.2-29.21v-40.59h11.68v40.59c0,11.68,7.23,18.71,18.61,18.71Z"/>
    <path d="M1409.24,454.48c-13.86,0-24.75,10.69-24.75,24.35s10.89,24.45,24.75,24.45c6.93,0,14.06-3.17,19.3-8.22l6.93,7.72c-7.03,6.93-17.03,11.38-26.83,11.38-20.29,0-36.04-15.34-36.04-35.24s15.94-34.85,36.43-34.85c9.8,0,19.6,4.06,26.33,10.69l-6.83,8.51c-5.05-5.45-12.28-8.81-19.3-8.81Z"/>
    <path d="M1506.16,444.38v10.49h-21.98v58.81h-11.68v-58.81h-21.88v-10.49h55.54Z"/>
    <path d="M1539.33,444.38v69.3h-11.68v-69.3h11.68Z"/>
    <path d="M1636.74,479.03c0,19.8-16.04,35.14-36.73,35.14s-36.73-15.34-36.73-35.14,16.04-34.95,36.73-34.95,36.73,15.15,36.73,34.95ZM1575.16,479.03c0,13.76,11.38,24.65,24.95,24.65s24.65-10.89,24.65-24.65-11.09-24.45-24.65-24.45-24.95,10.69-24.95,24.45Z"/>
    <path d="M1672.18,444.38l37.12,49.8v-49.8h11.48v69.3h-11.48l-36.93-49.7v49.7h-11.68v-69.3h11.48Z"/>
    <path d="M1772.47,454.88c-6.83,0-11.29,2.57-11.29,7.23,0,15.15,37.42,7.03,37.32,31.98,0,12.38-10.89,20-26.14,20-10.89,0-21.19-4.46-28.31-10.99l5.05-10.1c7.13,6.53,16.04,10.1,23.46,10.1,8.12,0,12.97-3.07,12.97-8.42,0-15.44-37.42-6.83-37.42-31.48,0-11.88,10.2-19.31,25.25-19.31,9.01,0,17.82,2.87,24.25,7.13l-4.85,10.3c-7.52-4.55-15.05-6.44-20.29-6.44Z"/>
  </g>
</svg>